{
  "accessors": [
    {
      "bufferView": 2,
      "componentType": 5126,
      "count": 28772,
      "max": [
        0.980862021446228,
        0.7443150281906128,
        0.9808610081672668
      ],
      "min": [
        -0.9808610081672668,
        -0.7956519722938538,
        -0.9808610081672668
      ],
      "type": "VEC3"
    },
    {
      "bufferView": 2,
      "byteOffset": 345264,
      "componentType": 5126,
      "count": 28772,
      "max": [
        1.0,
        1.0,
        1.0
      ],
      "min": [
        -1.0,
        -1.0,
        -1.0
      ],
      "type": "VEC3"
    },
    {
      "bufferView": 3,
      "componentType": 5126,
      "count": 28772,
      "max": [
        1.0,
        0.7089830040931702,
        1.0,
        1.0
      ],
      "min": [
        -1.0,
        -0.7089859843254089,
        -1.0,
        1.0
      ],
      "type": "VEC4"
    },
    {
      "bufferView": 1,
      "componentType": 5126,
      "count": 28772,
      "max": [
        0.9977970123291016,
        0.9846050143241882
      ],
      "min": [
        0.004883000161498785,
        0.0050409999676048756
      ],
      "type": "VEC2"
    },
    {
      "bufferView": 0,
      "componentType": 5125,
      "count": 167040,
      "type": "SCALAR"
    },
    {
      "bufferView": 2,
      "byteOffset": 690528,
      "componentType": 5126,
      "count": 20288,
      "max": [
        1.0,
        0.7956529855728149,
        1.0
      ],
      "min": [
        -1.0,
        0.6395040154457092,
        -1.0
      ],
      "type": "VEC3"
    },
    {
      "bufferView": 2,
      "byteOffset": 933984,
      "componentType": 5126,
      "count": 20288,
      "max": [
        1.0,
        1.0,
        1.0
      ],
      "min": [
        -1.0,
        -1.0,
        -1.0
      ],
      "type": "VEC3"
    },
    {
      "bufferView": 3,
      "byteOffset": 460352,
      "componentType": 5126,
      "count": 20288,
      "max": [
        1.0,
        0.8773940205574036,
        1.0,
        1.0
      ],
      "min": [
        -1.0,
        -0.8774909973144531,
        -1.0,
        1.0
      ],
      "type": "VEC4"
    },
    {
      "bufferView": 1,
      "byteOffset": 230176,
      "componentType": 5126,
      "count": 20288,
      "max": [
        0.9911080002784729,
        0.9883270263671875
      ],
      "min": [
        0.005867000203579664,
        0.018278000876307487
      ],
      "type": "VEC2"
    },
    {
      "bufferView": 0,
      "byteOffset": 668160,
      "componentType": 5125,
      "count": 116352,
      "type": "SCALAR"
    }
  ],
  "asset": {
    "extras": {
      "author": "Scott VanArsdale (https://sketchfab.com/vanart)",
      "license": "CC-BY-4.0 (http://creativecommons.org/licenses/by/4.0/)",
      "source": "https://sketchfab.com/3d-models/plain-can-a6cfd144a62e446c92f0987fb81d584f",
      "title": "Plain Can"
    },
    "generator": "Sketchfab-12.66.0",
    "version": "2.0"
  },
  "bufferViews": [
    {
      "buffer": 0,
      "byteLength": 1133568,
      "name": "floatBufferViews",
      "target": 34963
    },
    {
      "buffer": 0,
      "byteLength": 392480,
      "byteOffset": 1133568,
      "byteStride": 8,
      "name": "floatBufferViews",
      "target": 34962
    },
    {
      "buffer": 0,
      "byteLength": 1177440,
      "byteOffset": 1526048,
      "byteStride": 12,
      "name": "floatBufferViews",
      "target": 34962
    },
    {
      "buffer": 0,
      "byteLength": 784960,
      "byteOffset": 2703488,
      "byteStride": 16,
      "name": "floatBufferViews",
      "target": 34962
    }
  ],
  "buffers": [
    {
      "byteLength": 3488448,
      "uri": "scene.bin"
    }
  ],
  "images": [
    {
      "uri": "textures/lid_SHDR_baseColor.jpeg"
    },
    {
      "uri": "textures/lid_SHDR_metallicRoughness.png"
    },
    {
      "uri": "textures/lid_SHDR_normal.jpeg"
    },
    {
      "uri": "textures/can_SHDR_baseColor.jpeg"
    },
    {
      "uri": "textures/can_SHDR_metallicRoughness.png"
    },
    {
      "uri": "textures/can_SHDR_normal.jpeg"
    }
  ],
  "materials": [
    {
      "doubleSided": true,
      "name": "lid_SHDR",
      "normalTexture": {
        "index": 2
      },
      "occlusionTexture": {
        "index": 1
      },
      "pbrMetallicRoughness": {
        "baseColorTexture": {
          "index": 0
        },
        "metallicRoughnessTexture": {
          "index": 1
        }
      }
    },
    {
      "doubleSided": true,
      "name": "can_SHDR",
      "normalTexture": {
        "index": 5
      },
      "occlusionTexture": {
        "index": 4
      },
      "pbrMetallicRoughness": {
        "baseColorTexture": {
          "index": 3
        },
        "metallicRoughnessTexture": {
          "index": 4
        }
      }
    }
  ],
  "meshes": [
    {
      "name": "defaultMaterial",
      "primitives": [
        {
          "attributes": {
            "NORMAL": 1,
            "POSITION": 0,
            "TANGENT": 2,
            "TEXCOORD_0": 3
          },
          "indices": 4,
          "material": 1,
          "mode": 4
        }
      ]
    },
    {
      "name": "defaultMaterial",
      "primitives": [
        {
          "attributes": {
            "NORMAL": 6,
            "POSITION": 5,
            "TANGENT": 7,
            "TEXCOORD_0": 8
          },
          "indices": 9,
          "material": 0,
          "mode": 4
        }
      ]
    }
  ],
  "nodes": [
    {
      "children": [
        1
      ],
      "matrix": [
        1.0,
        0.0,
        0.0,
        0.0,
        0.0,
        2.220446049250313e-16,
        -1.0,
        0.0,
        0.0,
        1.0,
        2.220446049250313e-16,
        0.0,
        0.0,
        0.0,
        0.0,
        1.0
      ],
      "name": "Sketchfab_model"
    },
    {
      "children": [
        2,
        4
      ],
      "matrix": [
        1.0,
        0.0,
        0.0,
        0.0,
        0.0,
        -4.371139006309477e-08,
        0.999999999999999,
        0.0,
        0.0,
        -0.999999999999999,
        -4.371139006309477e-08,
        0.0,
        0.0,
        0.0,
        0.0,
        1.0
      ],
      "name": "Collada visual scene group"
    },
    {
      "children": [
        3
      ],
      "name": "g"
    },
    {
      "mesh": 0,
      "name": "defaultMaterial"
    },
    {
      "children": [
        5
      ],
      "name": "g"
    },
    {
      "mesh": 1,
      "name": "defaultMaterial"
    }
  ],
  "samplers": [
    {
      "magFilter": 9729,
      "minFilter": 9987,
      "wrapS": 10497,
      "wrapT": 10497
    }
  ],
  "scene": 0,
  "scenes": [
    {
      "name": "Sketchfab_Scene",
      "nodes": [
        0
      ]
    }
  ],
  "textures": [
    {
      "sampler": 0,
      "source": 0
    },
    {
      "sampler": 0,
      "source": 1
    },
    {
      "sampler": 0,
      "source": 2
    },
    {
      "sampler": 0,
      "source": 3
    },
    {
      "sampler": 0,
      "source": 4
    },
    {
      "sampler": 0,
      "source": 5
    }
  ]
}
